<svg xmlns="http://www.w3.org/2000/svg" width="80" height="60" viewBox="0 0 80 60"><path d="M77.5,114H10V66.5A2.5,2.5,0,0,0,7.5,64h-5A2.5,2.5,0,0,0,0,66.5V119a5,5,0,0,0,5,5H77.5a2.5,2.5,0,0,0,2.5-2.5v-5A2.5,2.5,0,0,0,77.5,114Zm-5-45H54.053A3.75,3.75,0,0,0,51.4,75.4l5.063,5.063L45,91.93,33.536,80.466a5,5,0,0,0-7.07,0L15.733,91.2a2.5,2.5,0,0,0,0,3.536l3.534,3.534a2.5,2.5,0,0,0,3.536,0l7.2-7.2,11.464,11.464a5,5,0,0,0,7.07,0l15-15L68.6,92.6A3.75,3.75,0,0,0,75,89.945V71.5A2.5,2.5,0,0,0,72.5,69Z" transform="translate(0 -64)"/></svg>