<svg xmlns="http://www.w3.org/2000/svg" width="25" height="25" viewBox="0 0 25 25"><path d="M22.656,0H7.031A2.344,2.344,0,0,0,4.688,2.344V4.688H2.344A2.344,2.344,0,0,0,0,7.031V22.656A2.344,2.344,0,0,0,2.344,25H17.969a2.344,2.344,0,0,0,2.344-2.344V20.313h2.344A2.344,2.344,0,0,0,25,17.969V2.344A2.344,2.344,0,0,0,22.656,0Zm-4.98,22.656H2.637a.293.293,0,0,1-.293-.293V7.324a.293.293,0,0,1,.293-.293H4.688V17.969a2.344,2.344,0,0,0,2.344,2.344H17.969v2.051A.293.293,0,0,1,17.676,22.656Zm4.688-4.687H7.324a.293.293,0,0,1-.293-.293V2.637a.293.293,0,0,1,.293-.293H22.363a.293.293,0,0,1,.293.293V17.676A.293.293,0,0,1,22.363,17.969Z"/></svg>