<svg xmlns="http://www.w3.org/2000/svg" width="50" height="50" viewBox="0 0 50 50"><defs><style>.a{fill:#fff;}</style></defs><path class="a" d="M48.3,16.066c-.459-.379-10.91-8.784-13.208-10.611C32.933,3.73,29.242,0,25,0c-4.219,0-7.875,3.683-10.091,5.455-2.389,1.9-12.8,10.273-13.2,10.6A4.688,4.688,0,0,0,0,19.676V45.313A4.687,4.687,0,0,0,4.688,50H45.313A4.687,4.687,0,0,0,50,45.313V19.679a4.687,4.687,0,0,0-1.7-3.613ZM45.313,44.727a.586.586,0,0,1-.586.586H5.273a.586.586,0,0,1-.586-.586V19.956A.585.585,0,0,1,4.9,19.5c1.55-1.251,10.624-8.55,12.926-10.38C19.6,7.7,22.7,4.688,25,4.688s5.455,3.063,7.169,4.433c2.3,1.83,11.377,9.13,12.926,10.382a.585.585,0,0,1,.217.455ZM42.188,26.4a1.172,1.172,0,0,1-.17,1.658c-2.83,2.274-5.788,4.648-6.927,5.553C32.875,35.379,29.219,39.063,25,39.063c-4.243,0-7.938-3.734-10.091-5.455-1.1-.876-4.077-3.263-6.926-5.553a1.172,1.172,0,0,1-.17-1.658L9.3,24.587a1.172,1.172,0,0,1,1.639-.169c2.795,2.246,5.719,4.593,6.891,5.525,1.714,1.369,4.855,4.433,7.169,4.433s5.4-3.016,7.169-4.433c1.171-.931,4.1-3.278,6.891-5.524a1.172,1.172,0,0,1,1.638.169l1.49,1.809Z"/></svg>