<svg xmlns="http://www.w3.org/2000/svg" width="80" height="62.21" viewBox="0 0 80 62.21"><path d="M38.924,48.189l-25.6,21.089V92.038a2.222,2.222,0,0,0,2.222,2.222L31.1,94.22A2.222,2.222,0,0,0,33.315,92V78.706a2.222,2.222,0,0,1,2.222-2.222h8.888a2.222,2.222,0,0,1,2.222,2.222V91.988a2.222,2.222,0,0,0,2.222,2.229l15.557.043a2.222,2.222,0,0,0,2.222-2.222V69.262l-25.6-21.073a1.693,1.693,0,0,0-2.125,0ZM79.37,62.523l-11.61-9.57V33.717a1.667,1.667,0,0,0-1.667-1.667H58.316a1.667,1.667,0,0,0-1.667,1.667V43.8L44.215,33.571a6.666,6.666,0,0,0-8.472,0L.59,62.523A1.667,1.667,0,0,0,.367,64.87l3.541,4.305a1.667,1.667,0,0,0,2.348.226L38.924,42.5a1.693,1.693,0,0,1,2.125,0L73.717,69.4a1.667,1.667,0,0,0,2.347-.222l3.541-4.305a1.667,1.667,0,0,0-.236-2.351Z" transform="translate(0.015 -32.05)"/></svg>