<svg xmlns="http://www.w3.org/2000/svg" width="65.413" height="66.4" viewBox="0 0 65.413 66.4"><path d="M10.139,52.809a34.612,34.612,0,0,1,0-48.951,1.791,1.791,0,0,1,2.215-.252l6.752,4.22a1.79,1.79,0,0,1,.713,2.183l-3.376,8.44A1.79,1.79,0,0,1,14.6,19.565l-5.814-.581a27.67,27.67,0,0,0,0,18.7L14.6,37.1a1.79,1.79,0,0,1,1.841,1.117l3.376,8.44a1.79,1.79,0,0,1-.713,2.183l-6.752,4.22A1.791,1.791,0,0,1,10.139,52.809Zm15.6-42.864a6.672,6.672,0,0,1,0,6.777,1.255,1.255,0,0,1-1.95.269l-.622-.6a1.259,1.259,0,0,1-.236-1.5,3.34,3.34,0,0,0,0-3.119,1.259,1.259,0,0,1,.236-1.5l.622-.6A1.255,1.255,0,0,1,25.742,9.945ZM35.3.447a20.028,20.028,0,0,1,0,25.774,1.255,1.255,0,0,1-1.828.1l-.6-.579a1.252,1.252,0,0,1-.1-1.706,16.691,16.691,0,0,0,0-21.4,1.252,1.252,0,0,1,.1-1.706l.6-.579a1.255,1.255,0,0,1,1.828.1ZM30.515,5.128a13.353,13.353,0,0,1,0,16.411,1.256,1.256,0,0,1-1.86.136l-.606-.581a1.249,1.249,0,0,1-.134-1.659,10.013,10.013,0,0,0,0-12.2,1.249,1.249,0,0,1,.134-1.659l.606-.581a1.256,1.256,0,0,1,1.86.136Z" transform="translate(0 26.765) rotate(-42)"/></svg>