<svg xmlns="http://www.w3.org/2000/svg" width="20" height="26.667" viewBox="0 0 20 26.667"><path d="M19.167,2.5A.836.836,0,0,0,20,1.667V.833A.836.836,0,0,0,19.167,0H.833A.836.836,0,0,0,0,.833v.833A.836.836,0,0,0,.833,2.5h.833v8.161C.615,11.188,0,11.818,0,12.5a9.988,9.988,0,0,0,4.521,8.359L3.406,24.516A1.665,1.665,0,0,0,5,26.667H15a1.665,1.665,0,0,0,1.594-2.151l-1.115-3.656A9.988,9.988,0,0,0,20,12.5c0-.682-.615-1.312-1.667-1.839V2.5Zm-15,1.25a.418.418,0,0,1,.417-.417h2.5A.418.418,0,0,1,7.5,3.75v.833A.418.418,0,0,1,7.083,5h-2.5a.418.418,0,0,1-.417-.417ZM10,14.167c-4.016,0-7.271-.745-7.271-1.667S5.984,10.833,10,10.833s7.271.745,7.271,1.667S14.016,14.167,10,14.167Z"/></svg>